# xmcd
#
# Track frame offsets: 
#        151
#        19496
#        42435
#        60332
#        82190
#        106003
#        132122
#        153914
#        172422
#        205692
#        231384
#        246568
#
# Disc length: 3634 seconds
#
# Revision: 0
# Processed by: cddbd v1.5.2PL0 Copyright (c) Steve Scherf et al.
# Submitted via: ExactAudioCopy v0.99pb4
#
DISCID=a60e300c
DTITLE=George and The G-Men - Caught Between The Sun and The Moon
DYEAR=1998
DGENRE=Blues
TTITLE0=Hanging Tree
TTITLE1=Hayley
TTITLE2=Rebel Rose
TTITLE3=Morning Light
TTITLE4=City of Thieves
TTITLE5=I Believe
TTITLE6=New York City
TTITLE7=Seven Years of Bad Luck
TTITLE8=Candyman
TTITLE9=Long Legged Woman
TTITLE10=Microwave Man
TTITLE11=Let It End
EXTD=
EXTT0=
EXTT1=
EXTT2=
EXTT3=
EXTT4=
EXTT5=
EXTT6=
EXTT7=
EXTT8=
EXTT9=
EXTT10=
EXTT11=
PLAYORDER=
